# AST/ASF file generated using VICON BodyLanguage
# -----------------------------------------------
:version 1.10
:name VICON
:units
  mass 1.0
  length 0.45
  angle deg
:documentation
   .ast/.asf automatically generated from VICON data using
   VICON BodyBuilder and BodyLanguage model FoxedUp or BRILLIANT.MOD
:root
   order TX TY TZ RX RY RZ
   axis XYZ
   position 0 0 0  
   orientation 0 0 0 
:bonedata
  begin
     id 1 
     name lhipjoint
     direction 0.693937 -0.600361 0.397515 
     length 2.37164 
     axis 0 0 0  XYZ
  end
  begin
     id 2 
     name lfemur
     direction 0.34202 -0.939693 0  
     length 6.18497  
     axis 0 0 20  XYZ
    dof rx ry rz
    limits (-160.0 20.0)
           (-70.0 70.0)
           (-60.0 70.0)
  end
  begin
     id 3 
     name ltibia
     direction 0.34202 -0.939693 0   
     length 6.91601   
     axis 0 0 20   XYZ
    dof rx
    limits (-10.0 170.0)
  end
  begin
     id 4 
     name lfoot
     direction 0.0978718 -0.2689 0.958182   
     length 1.81453   
     axis -90 7.62852e-016 20   XYZ
    dof rx rz
    limits (-45.0 90.0)
           (-70.0 20.0)
  end
  begin
     id 5 
     name ltoes
     direction 1.53569e-011 -4.21951e-011 1   
     length 0.912052   
     axis -90 7.62852e-016 20   XYZ
    dof rx
    limits (-90.0 20.0)
  end
  begin
     id 6 
     name rhipjoint
     direction -0.643996 -0.637876 0.422354   
     length 2.23216  
     axis 0 0 0  XYZ 
  end
  begin
     id 7 
     name rfemur
     direction -0.34202 -0.939693 0   
     length 6.15404   
     axis 0 0 -20   XYZ
    dof rx ry rz
    limits (-160.0 20.0)
           (-70.0 70.0)
           (-70.0 60.0)
  end
  begin
     id 8 
     name rtibia
     direction -0.34202 -0.939693 0   
     length 6.86744   
     axis 0 0 -20   XYZ
    dof rx
    limits (-10.0 170.0)
 end
 begin
     id 9 
     name rfoot
     direction -0.118701 -0.326127 0.937844   
     length 1.9243  
     axis -90 -7.62852e-016 -20   XYZ
    dof rx rz
    limits (-45.0 90.0)
           (-20.0 70.0)
  end
  begin
     id 10 
     name rtoes
     direction -1.5356e-011 -4.2181e-011 1   
     length 0.958865   
     axis -90 -7.62852e-016 -20   XYZ
    dof rx
    limits (-90.0 20.0)
  end
  begin
     id 11 
     name lowerback
     direction 0.0310826 0.968686 -0.246334   
     length 2.00021   
     axis 0 0 0   XYZ
    dof rx ry rz
    limits (-20.0 45.0)
           (-30.0 30.0)
           (-30.0 30.0)
  end
  begin
     id 12 
     name upperback
     direction -0.0152834 0.999474 -0.0286152   
     length 2.03728   
     axis 0 0 0   XYZ
    dof rx ry rz
    limits (-20.0 45.0)
           (-30.0 30.0)
           (-30.0 30.0)
  end
  begin
     id 13 
     name thorax
     direction -0.0323701 0.996236 0.0804149   
     length 2.16   
     axis 0 0 0   XYZ
    dof rx ry rz
    limits (-20.0 45.0)
           (-30.0 30.0)
           (-30.0 30.0)
  end
  begin
     id 14 
     name lowerneck
     direction 0.0307935 0.982251 0.185027   
     length 1.43558   
     axis 0 0 0   XYZ
    dof rx ry rz
    limits (-20.0 45.0)
           (-30.0 30.0)
           (-30.0 30.0)
  end
  begin
     id 15 
     name upperneck
     direction -0.0927153 0.994775 0.0427454   
     length 1.44603   
     axis 0 0 0   XYZ
    dof rx ry rz
    limits (-20.0 45.0)
           (-30.0 30.0)
           (-30.0 30.0)
  end
  begin
     id 16
     name head
     direction -0.0341265 0.999406 -0.00472033  
     length 1.45931  
     axis 0 0 0   XYZ
    dof rx ry rz
    limits (-20.0 45.0)
           (-30.0 30.0)
           (-30.0 30.0)
  end
  begin
     id 17 
     name lclavicle
     direction 0.820755 0.555306 -0.134151  
     length 2.66075  
     axis 0 0 0   XYZ
    dof ry rz
    limits (-20.0 10.0)
           (0.0 20.0)
  end
  begin
     id 18 
     name lhumerus
     direction 1 -4.48971e-011 5.24853e-027   
     length 5.0546   
     axis -180 -30 -90   XYZ
    dof rx ry rz
    limits (-60.0 90.0)
           (-90.0 90.0)
           (-90.0 90.0)
  end
  begin
     id 19
     name lradius
     direction 1 -4.48971e-011 2.76575e-028   
     length 3.39013   
     axis -180 -30 -90   XYZ
    dof rx
    limits (-10.0 170.0)
  end
  begin
     id 20
     name lwrist
     direction 1 -4.48939e-011 -2.27826e-027   
     length 1.69507   
     axis 2.17013e-015 90 90   XYZ
    dof ry
    limits (-180.0 0.0)
 end
  begin
     id 21 
     name lhand
     direction 1 -4.49009e-011 -4.55652e-027   
     length 0.572425   
     axis 2.90745e-015 90 90   XYZ
    dof rx rz
    limits (-90.0 90.0)
           (-45.0 45.0)
  end
  begin
     id 22 
     name lfingers
     direction 1 -4.48955e-011 -9.11303e-027   
     length 0.461504   
     axis 5.81489e-015 90 90   XYZ
    dof rx
    limits (0.0 90.0)
  end
  begin
     id 23
     name lthumb
     direction 0.707107 -6.34929e-011 0.707107   
     length 0.66263   
     axis -90 45 2.85299e-015   XYZ
    dof rx rz
    limits (-45.0 45.0)
           (-45.0 45.0)
  end
  begin
     id 24 
     name rclavicle
     direction -0.754477 0.632921 -0.173712   
     length 2.73081  
     axis 0 0 0   XYZ 
    dof ry rz
    limits (-10.0 20.0)
           (-20.0 0.0)
  end
  begin
     id 25 
     name rhumerus
     direction -1 -4.48969e-011 5.1496e-027  
     length 5.0701   
     axis -180 30 90   XYZ
    dof rx ry rz
    limits (-90.0 60.0)
           (-90.0 90.0)
           (-90.0 90.0)
  end
  begin
     id 26 
     name rradius
     direction -1 -4.48967e-011 -7.15624e-028   
     length 3.14957   
     axis -180 30 90   XYZ
    dof rx
    limits (-10.0 170.0)
  end
  begin
     id 27 
     name rwrist
     direction -1 -4.48938e-011 -2.27826e-027   
     length 1.57479   
     axis 2.17013e-015 -90 -90   XYZ
    dof ry
    limits (-180.0 0.0)
  end
  begin
     id 28
     name rhand
     direction -1 -4.49008e-011 -4.55652e-027   
     length 0.718191   
     axis 2.90745e-015 -90 -90   XYZ
    dof rx rz
    limits (-90.0 90.0)
           (-45.0 45.0)
  end
  begin
     id 29
     name rfingers
     direction -1 -4.48953e-011 -9.11303e-027   
     length 0.579024   
     axis 5.81489e-015 -90 -90   XYZ
    dof rx
    limits (0.0 90.0)
  end
  begin
     id 30
     name rthumb
     direction -0.707107 -6.34937e-011 0.707107   
     length 0.831366   
     axis -90 -45 -2.85299e-015   XYZ
    dof rx rz
    limits (-45.0 45.0)
           (-45.0 45.0)
  end
:hierarchy
  begin
    root lhipjoint rhipjoint lowerback
    lhipjoint lfemur
    lfemur ltibia
    ltibia lfoot
    lfoot ltoes
    rhipjoint rfemur
    rfemur rtibia
    rtibia rfoot
    rfoot rtoes
    lowerback upperback
    upperback thorax
    thorax lowerneck lclavicle rclavicle
    lowerneck upperneck
    upperneck head
    lclavicle lhumerus
    lhumerus lradius
    lradius lwrist
    lwrist lhand lthumb
    lhand lfingers
    rclavicle rhumerus
    rhumerus rradius
    rradius rwrist
    rwrist rhand rthumb
    rhand rfingers
  end

#!OML:ASF H:\Male1\Project 1\Capture day 1\Session 1\Male1.ASF
:FULLY-SPECIFIED
:DEGREES
49
root 8.25925 13.5736 4.71018 182.561 5.08165 -179.499
lowerback 25.1982 0.514695 -2.27726
upperback 5.73211 1.15796 -1.98438
thorax -7.63252 1.10331 -1.30315
lowerneck -5.29249 5.98254 9.38742
upperneck -9.06633 7.80495 -9.00484
head -1.23253 4.04685 -4.58245
rclavicle 2.38542e-015 5.96354e-014
rhumerus 2.42429 -30.0853 -46.4484
rradius 114.917
rwrist -13.8234
rhand -50.1957 18.6945
rfingers 7.12502
rthumb -22.7769 -9.98086
lclavicle 2.38542e-015 5.96354e-014
lhumerus 7.90677 33.229 44.6485
lradius 118.636
lwrist -8.27606
lhand -54.8832 -2.13241
lfingers 7.12502
lthumb -27.2684 25.9161
rfemur -39.3098 -2.19669 18.7423
rtibia 70.0234
rfoot -29.678 -22.7081
rtoes -34.6047
lfemur -38.6192 2.54884 -14.173
ltibia 68.1967
lfoot -26.6757 16.087
ltoes -37.3987
50
root 8.25007 13.5296 4.70095 182.677 5.1461 -179.492
lowerback 25.3748 0.479346 -2.23224
upperback 5.74828 1.12815 -1.96026
thorax -7.70426 1.0917 -1.29858
lowerneck -5.41037 6.06787 9.45035
upperneck -9.07532 7.85849 -9.44238
head -1.05282 4.08787 -4.28321
rclavicle -3.33958e-014 -3.97569e-015
rhumerus 2.56922 -30.277 -45.8619
rradius 116.853
rwrist -13.3518
rhand -50.3465 19.7621
rfingers 7.12502
rthumb -22.9217 -8.8954
lclavicle -3.33958e-014 -3.97569e-015
lhumerus 7.36387 34.1883 44.3433
lradius 121.251
lwrist -8.27326
lhand -55.1827 -2.42643
lfingers 7.12502
lthumb -27.5549 25.5767
rfemur -39.8175 -1.96291 18.7407
rtibia 70.7501
rfoot -29.8168 -23.0399
rtoes -34.5065
lfemur -39.1853 2.73481 -14.2177
ltibia 68.9677
lfoot -26.8722 16.2196
ltoes -37.5844
51
root 8.24083 13.4969 4.69328 182.81 5.21287 -179.475
lowerback 25.5163 0.443868 -2.16875
upperback 5.76554 1.10263 -1.94464
thorax -7.75656 1.08133 -1.314
lowerneck -5.39507 6.13042 9.51523
upperneck -9.08587 7.93482 -9.54958
head -1.04324 4.1265 -4.32397
rclavicle 1.43125e-014 -4.77083e-015
rhumerus 2.59746 -30.33 -45.3064
rradius 118.417
rwrist -12.5355
rhand -50.2884 20.549
rfingers 7.12502
rthumb -22.8659 -8.11537
lclavicle 1.43125e-014 -4.77083e-015
lhumerus 6.71245 34.92 43.9877
lradius 123.363
lwrist -8.17152
lhand -54.5349 -2.74901
lfingers 7.12502
lthumb -26.9352 25.3514
rfemur -40.249 -1.6695 18.7429
rtibia 71.2998
rfoot -29.9125 -23.3672
rtoes -34.3769
lfemur -39.6681 2.90329 -14.2346
ltibia 69.5954
lfoot -27.2374 15.9962
ltoes -36.9773
52
root 8.23184 13.4748 4.68781 182.962 5.27056 -179.45
lowerback 25.6352 0.400647 -2.08615
upperback 5.77573 1.06943 -1.94404
thorax -7.80483 1.06607 -1.35388
lowerneck -5.29914 6.17643 9.58566
upperneck -9.1979 7.99593 -9.65957
head -1.07737 4.1612 -4.37269
rclavicle -4.77083e-015 -2.38542e-014
rhumerus 2.54619 -30.3031 -44.8179
rradius 119.636
rwrist -11.5546
rhand -49.9969 21.0988
rfingers 7.12502
rthumb -22.5861 -7.5999
lclavicle -4.77083e-015 -2.38542e-014
lhumerus 6.01656 35.4808 43.5515
lradius 125.006
lwrist -7.97284
lhand -52.9339 -2.99876
lfingers 7.12502
lthumb -25.4024 25.3289
rfemur -40.6216 -1.35301 18.7456
rtibia 71.6956
rfoot -29.9871 -23.6543
rtoes -34.1716
lfemur -40.0825 3.04035 -14.2299
ltibia 70.0886
lfoot -27.7204 15.4805
ltoes -35.7119
53
root 8.22337 13.462 4.68466 183.121 5.3089 -179.427
lowerback 25.7418 0.348648 -1.99347
upperback 5.78292 1.02614 -1.95925
thorax -7.85001 1.04557 -1.41346
lowerneck -5.15936 6.20253 9.63271
upperneck -9.36425 8.03685 -9.73272
head -1.13917 4.18779 -4.41052
rclavicle -1.59028e-014 1.11319e-014
rhumerus 2.45016 -30.2562 -44.406
rradius 120.552
rwrist -10.6282
rhand -49.5559 21.4424
rfingers 7.12502
rthumb -22.1627 -7.30716
lclavicle -1.59028e-014 1.11319e-014
lhumerus 5.35965 35.9467 43.0751
lradius 126.194
lwrist -7.71297
lhand -50.5804 -3.49275
lfingers 7.12502
lthumb -23.1461 25.1367
rfemur -40.9327 -1.0548 18.7432
rtibia 71.9548
rfoot -30.0425 -23.888
rtoes -33.9124
lfemur -40.4316 3.13053 -14.2178
ltibia 70.4455
lfoot -28.2015 14.843
ltoes -34.1451
54
root 8.21569 13.4572 4.6835 183.273 5.31911 -179.405
lowerback 25.8508 0.292687 -1.90714
upperback 5.79016 0.976597 -1.97602
thorax -7.89649 1.02241 -1.46916
lowerneck -5.00194 6.22724 9.69076
upperneck -9.53312 8.07613 -9.80566
head -1.20421 4.2133 -4.45093
rclavicle 3.57812e-015 -5.56597e-014
rhumerus 2.33795 -30.2233 -44.0442
rradius 121.21
rwrist -9.91437
rhand -49.1447 21.5278
rfingers 7.12502
rthumb -21.7679 -7.26815
lclavicle 3.57812e-015 -5.56597e-014
lhumerus 4.78648 36.3769 42.5998
lradius 126.964
lwrist -7.52476
lhand -47.8372 -3.81111
lfingers 7.12502
lthumb -20.512 25.1253
rfemur -41.1699 -0.807468 18.7392
rtibia 72.0913
rfoot -30.0768 -24.0739
rtoes -33.6459
lfemur -40.7118 3.16391 -14.2035
ltibia 70.6655
lfoot -28.5947 14.2336
ltoes -32.6083
55
root 8.20873 13.4589 4.68385 183.414 5.30164 -179.38
lowerback 25.9642 0.240735 -1.83511
upperback 5.79927 0.930291 -1.98212
thorax -7.94345 1.00137 -1.50592
lowerneck -4.8788 6.24548 9.72902
upperneck -9.65513 8.1057 -9.85061
head -1.25312 4.23224 -4.47759
rclavicle -3.97569e-015 1.43125e-014
rhumerus 2.21587 -30.224 -43.7014
rradius 121.666
rwrist -9.49438
rhand -48.8836 21.3561
rfingers 7.12502
rthumb -21.5173 -7.46873
lclavicle -3.97569e-015 1.43125e-014
lhumerus 4.30163 36.7212 42.1423
lradius 127.426
lwrist -7.23584
lhand -45.3544 -3.8515
lfingers 7.12502
lthumb -18.1247 25.324
rfemur -41.3349 -0.624503 18.7366
rtibia 72.1203
rfoot -30.0918 -24.2152
rtoes -33.4036
lfemur -40.9298 3.14522 -14.1887
ltibia 70.7572
lfoot -28.8547 13.7603
ltoes -31.3561
56
root 8.20219 13.4656 4.68523 183.543 5.26895 -179.362
lowerback 26.0697 0.20417 -1.78881
upperback 5.81684 0.900667 -1.97503
thorax -7.97719 0.989464 -1.51816
lowerneck -4.81079 6.24944 9.74608
upperneck -9.72655 8.11414 -9.87535
head -1.28222 4.23913 -4.49206
rclavicle -7.95139e-015 1.51076e-014
rhumerus 2.07098 -30.2609 -43.3462
rradius 121.982
rwrist -9.41741
rhand -48.7475 20.9959
rfingers 7.12502
rthumb -21.3865 -7.84379
lclavicle -7.95139e-015 1.51076e-014
lhumerus 3.90866 36.9535 41.7139
lradius 127.662
lwrist -6.8017
lhand -43.6906 -3.82815
lfingers 7.12502
lthumb -16.5234 25.4883
rfemur -41.4417 -0.511998 18.724
rtibia 72.0615
rfoot -30.0868 -24.3042
rtoes -33.2066
lfemur -41.0914 3.08614 -14.1881
ltibia 70.7389
lfoot -28.9833 13.4692
ltoes -30.4953
57
root 8.19612 13.476 4.68724 183.669 5.23392 -179.345
lowerback 26.1567 0.191536 -1.77482
upperback 5.83966 0.896442 -1.94486
thorax -7.99597 0.990327 -1.49365
lowerneck -4.78809 6.23685 9.74993
upperneck -9.76263 8.09813 -9.90127
head -1.29644 4.23314 -4.50288
rclavicle 1.59028e-015 -2.38542e-015
rhumerus 1.8764 -30.2852 -42.9411
rradius 122.216
rwrist -9.69418
rhand -48.6243 20.4901
rfingers 7.12502
rthumb -21.2682 -8.363
lclavicle 1.59028e-015 -2.38542e-015
lhumerus 3.55328 37.0445 41.3021
lradius 127.736
lwrist -6.32541
lhand -43.0319 -3.57831
lfingers 7.12502
lthumb -15.8891 25.7898
rfemur -41.5126 -0.466061 18.7125
rtibia 71.9354
rfoot -30.0508 -24.3533
rtoes -33.0841
lfemur -41.2129 3.00285 -14.1954
ltibia 70.6422
lfoot -29.0032 13.3627
ltoes -30.0481
58
root 8.19049 13.4885 4.68954 183.803 5.20828 -179.314
lowerback 26.2102 0.201672 -1.77002
upperback 5.86481 0.92062 -1.89737
thorax -7.99533 1.00436 -1.45272
lowerneck -4.79294 6.20701 9.74094
upperneck -9.78916 8.05913 -9.91687
head -1.30672 4.21572 -4.50803
rclavicle -1.07344e-014 -1.35174e-014
rhumerus 1.59459 -30.2444 -42.4761
rradius 122.404
rwrist -10.2186
rhand -48.4102 20.1499
rfingers 7.12502
rthumb -21.0625 -8.72621
lclavicle -1.07344e-014 -1.35174e-014
lhumerus 3.19044 36.9974 40.8794
lradius 127.707
lwrist -5.83444
lhand -43.0612 -3.75932
lfingers 7.12502
lthumb -15.9173 25.6066
rfemur -41.5681 -0.473298 18.7203
rtibia 71.7594
rfoot -29.9782 -24.3687
rtoes -33.039
lfemur -41.3114 2.90669 -14.1917
ltibia 70.5029
lfoot -28.9614 13.3854
ltoes -29.8847
59
root 8.185 13.5024 4.69184 183.946 5.20165 -179.262
lowerback 26.2193 0.223727 -1.76377
upperback 5.8962 0.961938 -1.83868
thorax -7.96541 1.02609 -1.4042
lowerneck -4.79851 6.16902 9.72072
upperneck -9.83996 8.01159 -9.92128
head -1.32594 4.19522 -4.50903
rclavicle 1.74931e-014 3.49861e-014
rhumerus 1.23599 -30.0892 -41.9768
rradius 122.546
rwrist -10.7725
rhand -48.0576 19.9667
rfingers 7.12502
rthumb -20.7237 -8.94679
lclavicle 1.74931e-014 3.49861e-014
lhumerus 2.74809 36.8215 40.397
lradius 127.577
lwrist -5.68789
lhand -43.4555 -4.02264
lfingers 7.12502
lthumb -16.2969 25.3125
rfemur -41.6148 -0.524792 18.7534
rtibia 71.5476
rfoot -29.8829 -24.3317
rtoes -33.0299
lfemur -41.3861 2.80193 -14.1658
ltibia 70.35
lfoot -28.9242 13.4401
ltoes -29.7442
